<svg width="1920" height="1080" viewBox="0 0 1920 1080" fill="none" xmlns="http://www.w3.org/2000/svg">
<g clip-path="url(#clip0_14_4404)">
<path fill-rule="evenodd" clip-rule="evenodd" d="M172.196 494.857H255.707C285.85 494.857 307.593 503.246 320.935 519.53C334.771 535.814 341.69 557.033 341.69 583.187C341.69 608.846 335.76 632.038 323.9 653.749C312.04 674.97 298.698 689.279 282.392 696.187C266.579 703.094 251.26 706.055 236.93 706.055H129.699L172.196 494.857ZM202.339 659.671H228.529C245.825 659.671 258.672 650.297 267.073 632.038C275.473 613.287 279.427 595.031 279.427 576.771C279.427 565.915 276.956 557.033 272.015 551.111C267.567 544.696 258.672 541.242 245.825 541.242H226.058L202.339 659.671ZM534.903 706.055H473.133L470.662 671.514H403.953L388.14 706.055H320.441L435.578 494.857H502.783L534.903 706.055ZM466.215 626.611L460.286 549.631H459.791L424.707 626.611H466.215ZM601.612 494.857H717.244C737.504 494.857 751.836 500.285 761.222 511.141C770.611 521.998 775.058 535.321 775.058 550.618C775.058 566.902 770.116 581.212 760.73 593.55C750.846 605.885 735.033 613.781 713.292 617.233C726.138 628.091 741.456 657.699 759.245 706.055H692.537C687.1 690.76 680.676 674.475 672.771 656.219C665.358 637.959 659.921 627.596 655.969 624.636C652.016 621.675 647.569 620.194 642.132 620.194H638.675L621.377 706.055H558.126L601.612 494.857ZM647.074 580.717H658.935C679.195 580.717 692.042 579.732 697.97 577.757C703.902 575.785 707.855 572.823 710.821 568.382C713.783 563.448 715.268 559.007 715.268 555.059C715.268 549.631 713.783 545.19 710.326 542.229C706.865 539.268 699.455 537.788 687.595 537.788H655.969L647.074 580.717Z" fill="white"/>
<path fill-rule="evenodd" clip-rule="evenodd" d="M1392.25 494.858L1300.34 706.059H1241.04L1236.1 576.771H1235.61L1179.77 706.059H1119.48L1114.05 494.858H1168.9L1165.93 624.145L1166.43 624.636L1220.78 494.858H1279.59L1282.06 625.131H1282.55L1332.96 494.858H1392.25ZM1410.04 494.858H1521.23C1540.5 494.858 1554.83 500.286 1563.73 511.142C1572.62 521.999 1577.07 535.322 1577.07 550.619C1577.07 566.903 1572.12 581.213 1562.74 593.551C1553.35 605.885 1538.03 613.782 1517.28 617.234C1529.63 628.092 1544.45 657.7 1561.25 706.059H1497.51C1492.07 690.761 1486.15 674.476 1478.73 656.22C1471.32 637.96 1465.88 627.597 1462.42 624.636C1458.47 621.675 1454.02 620.195 1449.08 620.195H1445.62L1429.32 706.059H1368.54L1410.04 494.858ZM1453.53 580.722H1465.39C1484.66 580.722 1497.02 579.732 1502.45 577.761C1508.38 575.786 1512.33 572.824 1515.3 568.384C1517.77 563.449 1519.25 559.008 1519.25 555.06C1519.25 549.632 1517.77 545.191 1514.31 542.23C1510.85 539.269 1503.93 537.789 1493.06 537.789H1461.93L1453.53 580.722ZM1707.52 491.404C1737.17 491.404 1759.41 499.793 1773.24 517.064C1787.08 534.335 1794 555.554 1794 580.722C1794 590.59 1793.01 601.444 1790.54 614.277C1787.58 626.611 1782.63 639.44 1775.22 652.764C1767.81 666.088 1758.42 677.437 1746.56 686.814C1734.7 695.696 1723.33 702.109 1712.46 705.07C1701.59 708.526 1690.23 710.006 1677.88 710.006C1650.2 710.006 1627.97 702.109 1612.64 686.814C1596.83 671.515 1588.93 650.298 1588.93 622.665C1588.93 608.355 1590.9 594.042 1594.86 580.227C1598.81 566.903 1604.25 554.073 1612.15 541.737C1620.06 529.4 1629.45 519.531 1640.81 511.142C1651.68 502.754 1663.05 497.326 1673.92 494.858C1684.79 492.391 1696.16 491.404 1707.52 491.404ZM1681.83 661.647C1693.19 661.647 1703.07 657.205 1711.48 647.337C1719.38 637.96 1725.31 626.117 1729.27 611.316C1733.22 597.003 1734.7 586.64 1734.7 580.722C1734.7 566.903 1731.74 556.54 1725.31 549.632C1718.89 542.724 1710.98 539.269 1701.1 539.269C1689.73 539.269 1680.34 543.711 1672.44 552.593C1664.53 560.982 1658.6 572.824 1654.65 587.134C1650.2 601.444 1648.23 614.273 1648.23 624.145C1648.23 634.999 1651.19 643.882 1657.12 651.284C1663.05 658.191 1671.45 661.647 1681.83 661.647Z" fill="white"/>
<path fill-rule="evenodd" clip-rule="evenodd" d="M1624.31 284.221H1708.17C1711.62 284.221 1714.43 287.021 1714.43 290.444V377.577C1714.43 381 1711.62 383.801 1708.17 383.801H1624.31C1620.87 383.801 1618.05 381 1618.05 377.577V290.444C1618.05 287.021 1620.87 284.221 1624.31 284.221Z" fill="white"/>
<path fill-rule="evenodd" clip-rule="evenodd" d="M1599.27 285.653C1584.63 285.653 1572.8 273.89 1572.8 259.326C1572.8 244.763 1584.63 233 1599.27 233C1613.92 233 1625.74 244.763 1625.74 259.326C1625.74 273.89 1613.92 285.653 1599.27 285.653Z" fill="white"/>
<path d="M1577.99 297.291C1577.99 297.291 1561.03 313.411 1541.69 385.046C1541.69 385.046 1549.77 405.585 1482.24 440.438C1482.24 440.438 1445.5 464.772 1451.57 475.29C1457.64 485.808 1508.71 453.383 1519.79 445.416C1530.86 437.45 1605.53 386.851 1641.83 475.29C1641.83 475.29 1676.32 496.202 1658.1 452.263C1639.89 408.323 1590.32 398.427 1566.73 395.626C1566.73 395.626 1566.41 366.686 1582.37 339.613C1582.37 339.613 1610.85 351.5 1618.05 350.816C1625.25 350.131 1651.84 344.53 1666.87 332.767C1681.89 321.004 1662.55 315.34 1634.95 325.921C1607.34 336.501 1628.44 334.945 1590.51 320.942C1590.51 320.942 1609.6 278.745 1577.99 297.291Z" fill="white"/>
<path d="M1191.21 321.564C1191.21 321.564 1584.13 311.606 1557.96 324.054C1557.96 324.054 1216.56 324.489 1191.21 321.564Z" fill="white"/>
<path d="M1128 387.6C1128 387.6 1557.72 376.708 1529.06 390.338C1529.06 390.338 1155.67 390.774 1128 387.6Z" fill="white"/>
<path d="M178.509 830.036L192.562 790.327H199.897L178.663 846.999L162.448 805.053L146.234 846.999L125 790.327H132.335L146.697 830.036L162.448 787.629L178.509 830.036Z" fill="white"/>
<path d="M210.492 844.302V838.135H237.749V844.302H210.492ZM210.492 796.495V790.328H237.749V796.495H210.492ZM210.492 818.084V811.917H236.204V818.084H210.492ZM206.863 790.328H213.426V844.302H206.863V790.328Z" fill="white"/>
<path d="M272.465 790.328H279.028V844.302H272.465V790.328ZM288.68 844.302H276.094V837.746H288.68C291.717 837.746 294.496 837.285 297.019 836.361C299.541 835.382 301.703 834.021 303.504 832.275C305.306 830.473 306.696 828.314 307.674 825.797C308.652 823.276 309.141 820.452 309.141 817.313C309.141 814.179 308.652 811.351 307.674 808.833C306.696 806.316 305.306 804.181 303.504 802.434C301.703 800.633 299.541 799.272 297.019 798.348C294.496 797.369 291.717 796.881 288.68 796.881H276.094V790.328H288.68C293.93 790.328 298.589 791.457 302.655 793.722C306.722 795.984 309.913 799.142 312.23 803.205C314.546 807.213 315.704 811.917 315.704 817.313C315.704 822.713 314.546 827.441 312.23 831.504C309.913 835.512 306.722 838.647 302.655 840.908C298.589 843.17 293.93 844.302 288.68 844.302Z" fill="white"/>
<path d="M328.574 844.302V838.135H355.831V844.302H328.574ZM328.574 796.495V790.328H355.831V796.495H328.574ZM328.574 818.084V811.917H354.287V818.084H328.574ZM324.945 790.328H331.508V844.302H324.945V790.328Z" fill="white"/>
<path d="M367.398 790.328H373.961V838.135H395.195V844.302H367.398V790.328Z" fill="white"/>
<path d="M402.16 790.328H408.723V844.302H402.16V790.328Z" fill="white"/>
<path d="M440.391 832.118L458.151 790.328H465.486L440.391 847L415.297 790.328H422.632L440.391 832.118Z" fill="white"/>
<path d="M475.687 844.302V838.135H502.944V844.302H475.687ZM475.687 796.495V790.328H502.944V796.495H475.687ZM475.687 818.084V811.917H501.401V818.084H475.687ZM472.059 790.328H478.622V844.302H472.059V790.328Z" fill="white"/>
<path d="M524.164 817.699H531.499L550.803 844.302H542.694L524.164 817.699ZM514.512 790.328H521.075V844.302H514.512V790.328ZM518.14 796.11V790.328H529.181C532.683 790.328 535.796 790.997 538.526 792.334C541.304 793.616 543.492 795.469 545.09 797.884C546.735 800.299 547.561 803.178 547.561 806.521C547.561 809.809 546.735 812.688 545.09 815.154C543.492 817.573 541.304 819.449 538.526 820.786C535.796 822.069 532.683 822.713 529.181 822.713H518.14V816.928H529.181C531.499 816.928 533.533 816.519 535.284 815.697C537.082 814.874 538.475 813.691 539.451 812.149C540.482 810.607 540.997 808.731 540.997 806.521C540.997 804.31 540.482 802.434 539.451 800.892C538.475 799.351 537.082 798.167 535.284 797.345C533.533 796.523 531.499 796.11 529.181 796.11H518.14Z" fill="white"/>
<path d="M610.288 790.328H617.622L599.632 821.014V844.302H593.069V821.093L575.078 790.328H582.413L596.311 815.311L610.288 790.328Z" fill="white"/>
<path d="M624.164 817.313C624.164 821.375 625.038 824.998 626.789 828.187C628.591 831.373 631.038 833.891 634.123 835.743C637.212 837.592 640.714 838.52 644.625 838.52C648.588 838.52 652.09 837.592 655.127 835.743C658.216 833.891 660.636 831.373 662.384 828.187C664.186 824.998 665.087 821.375 665.087 817.313C665.087 813.254 664.186 809.631 662.384 806.442C660.636 803.256 658.216 800.738 655.127 798.886C652.09 797.037 648.588 796.109 644.625 796.109C640.714 796.109 637.212 797.037 634.123 798.886C631.038 800.738 628.591 803.256 626.789 806.442C625.038 809.631 624.164 813.254 624.164 817.313ZM617.215 817.313C617.215 813.356 617.884 809.706 619.222 806.367C620.611 802.973 622.543 800.042 625.014 797.576C627.485 795.055 630.393 793.104 633.738 791.716C637.086 790.276 640.714 789.557 644.625 789.557C648.588 789.557 652.219 790.276 655.513 791.716C658.858 793.104 661.766 795.055 664.237 797.576C666.708 800.042 668.612 802.973 669.95 806.367C671.343 809.706 672.036 813.356 672.036 817.313C672.036 821.222 671.343 824.872 669.95 828.263C668.612 831.657 666.708 834.611 664.237 837.131C661.766 839.598 658.858 841.552 655.513 842.992C652.219 844.377 648.588 845.072 644.625 845.072C640.714 845.072 637.086 844.377 633.738 842.992C630.393 841.552 627.485 839.598 625.014 837.131C622.543 834.611 620.611 831.657 619.222 828.263C617.884 824.872 617.215 821.222 617.215 817.313Z" fill="white"/>
<path d="M680.922 790.328H687.485V826.568C687.485 830.269 688.489 833.25 690.496 835.512C692.503 837.773 695.438 838.906 699.298 838.906C703.158 838.906 706.093 837.773 708.1 835.512C710.107 833.25 711.111 830.269 711.111 826.568V790.328H717.674V826.568C717.674 829.242 717.237 831.708 716.363 833.97C715.537 836.231 714.302 838.186 712.657 839.83C711.059 841.474 709.131 842.76 706.865 843.685C704.598 844.609 702.076 845.073 699.298 845.073C696.52 845.073 693.997 844.609 691.731 843.685C689.465 842.76 687.509 841.474 685.864 839.83C684.267 838.186 683.031 836.231 682.157 833.97C681.331 831.708 680.922 829.242 680.922 826.568V790.328Z" fill="white"/>
<path d="M739.293 817.699H746.628L765.932 844.302H757.823L739.293 817.699ZM729.641 790.328H736.204V844.302H729.641V790.328ZM733.269 796.11V790.328H744.313C747.812 790.328 750.928 790.997 753.655 792.334C756.433 793.616 758.621 795.469 760.218 797.884C761.864 800.299 762.69 803.178 762.69 806.521C762.69 809.809 761.864 812.688 760.218 815.154C758.621 817.573 756.433 819.449 753.655 820.786C750.928 822.069 747.812 822.713 744.313 822.713H733.269V816.928H744.313C746.628 816.928 748.662 816.519 750.413 815.697C752.215 814.874 753.604 813.691 754.58 812.149C755.611 810.607 756.126 808.731 756.126 806.521C756.126 804.31 755.611 802.434 754.58 800.892C753.604 799.351 752.215 798.167 750.413 797.345C748.662 796.523 746.628 796.11 744.313 796.11H733.269Z" fill="white"/>
<path d="M836.919 790.327H843.482V846.999L802.559 804.128V844.301H795.996V787.629L836.919 830.5V790.327Z" fill="white"/>
<path d="M859.491 844.302V838.135H886.748V844.302H859.491ZM859.491 796.495V790.328H886.748V796.495H859.491ZM859.491 818.084V811.917H885.206V818.084H859.491ZM855.863 790.328H862.427V844.302H855.863V790.328Z" fill="white"/>
<path d="M901.944 844.302V838.135H929.201V844.302H901.944ZM901.944 796.495V790.328H929.201V796.495H901.944ZM901.944 818.084V811.917H927.659V818.084H901.944ZM898.316 790.328H904.88V844.302H898.316V790.328Z" fill="white"/>
<path d="M940.77 790.328H947.333V844.302H940.77V790.328ZM956.985 844.302H944.401V837.746H956.985C960.023 837.746 962.801 837.285 965.323 836.361C967.846 835.382 970.009 834.021 971.812 832.275C973.614 830.473 975.003 828.314 975.979 825.797C976.959 823.276 977.447 820.452 977.447 817.313C977.447 814.179 976.959 811.351 975.979 808.833C975.003 806.316 973.614 804.181 971.812 802.434C970.009 800.633 967.846 799.272 965.323 798.348C962.801 797.369 960.023 796.881 956.985 796.881H944.401V790.328H956.985C962.234 790.328 966.893 791.457 970.962 793.722C975.027 795.984 978.218 799.142 980.535 803.205C982.853 807.213 984.01 811.917 984.01 817.313C984.01 822.713 982.853 827.441 980.535 831.504C978.218 835.512 975.027 838.647 970.962 840.908C966.893 843.17 962.234 844.302 956.985 844.302Z" fill="white"/>
<path d="M995.257 827.956C996.493 830.115 997.779 832.015 999.117 833.659C1000.51 835.306 1002.05 836.589 1003.75 837.517C1005.45 838.441 1007.38 838.905 1009.54 838.905C1012.42 838.905 1014.74 838.107 1016.49 836.514C1018.24 834.921 1019.11 832.888 1019.11 830.422C1019.11 828.007 1018.55 826.079 1017.42 824.64C1016.29 823.2 1014.79 822.044 1012.94 821.171C1011.14 820.243 1009.21 819.421 1007.15 818.701C1005.81 818.241 1004.32 817.647 1002.67 816.927C1001.02 816.156 999.452 815.208 997.96 814.076C996.465 812.892 995.23 811.453 994.254 809.757C993.325 808.062 992.865 805.981 992.865 803.512C992.865 800.841 993.534 798.449 994.871 796.341C996.209 794.233 998.063 792.589 1000.43 791.405C1002.8 790.174 1005.5 789.557 1008.54 789.557C1011.47 789.557 1014.02 790.123 1016.18 791.252C1018.39 792.333 1020.28 793.745 1021.82 795.492C1023.36 797.191 1024.57 798.988 1025.45 800.892L1019.81 804.129C1019.14 802.792 1018.29 801.482 1017.26 800.196C1016.23 798.913 1014.97 797.859 1013.48 797.037C1012.04 796.212 1010.26 795.802 1008.15 795.802C1005.22 795.802 1003.08 796.522 1001.74 797.962C1000.4 799.35 999.735 800.916 999.735 802.666C999.735 804.156 1000.12 805.545 1000.89 806.827C1001.67 808.062 1002.95 809.246 1004.76 810.375C1006.61 811.453 1009.1 812.534 1012.24 813.612C1013.68 814.127 1015.2 814.795 1016.8 815.618C1018.39 816.44 1019.86 817.494 1021.2 818.78C1022.59 820.014 1023.72 821.529 1024.6 823.33C1025.47 825.077 1025.91 827.185 1025.91 829.651C1025.91 832.015 1025.45 834.15 1024.52 836.05C1023.65 837.953 1022.41 839.57 1020.81 840.908C1019.27 842.245 1017.49 843.271 1015.49 843.991C1013.53 844.711 1011.47 845.072 1009.31 845.072C1006.38 845.072 1003.65 844.455 1001.12 843.22C998.653 841.938 996.465 840.266 994.561 838.209C992.708 836.101 991.189 833.867 990.008 831.503L995.257 827.956Z" fill="white"/>
<path d="M1063.88 828.109L1066.19 821.941H1090.13L1092.44 828.109H1063.88ZM1078.01 802.508L1068.89 823.944L1068.28 825.332L1060.25 844.301H1052.91L1078.01 787.629L1103.1 844.301H1095.76L1087.89 825.796L1087.27 824.254L1078.01 802.508Z" fill="white"/>
<path d="M1098.84 796.495V790.328H1133.2V796.495H1119.3V844.302H1112.74V796.495H1098.84Z" fill="white"/>
<path d="M1192.71 790.328H1200.04L1182.05 821.014V844.302H1175.49V821.093L1157.5 790.328H1164.83L1178.73 815.311L1192.71 790.328Z" fill="white"/>
<path d="M1206.58 817.313C1206.58 821.375 1207.46 824.998 1209.21 828.187C1211.01 831.373 1213.45 833.891 1216.54 835.743C1219.63 837.592 1223.13 838.52 1227.04 838.52C1231.01 838.52 1234.51 837.592 1237.55 835.743C1240.63 833.891 1243.05 831.373 1244.8 828.187C1246.6 824.998 1247.5 821.375 1247.5 817.313C1247.5 813.254 1246.6 809.631 1244.8 806.442C1243.05 803.256 1240.63 800.738 1237.55 798.886C1234.51 797.037 1231.01 796.109 1227.04 796.109C1223.13 796.109 1219.63 797.037 1216.54 798.886C1213.45 800.738 1211.01 803.256 1209.21 806.442C1207.46 809.631 1206.58 813.254 1206.58 817.313ZM1199.63 817.313C1199.63 813.356 1200.3 809.706 1201.64 806.367C1203.03 802.973 1204.96 800.042 1207.43 797.576C1209.9 795.055 1212.81 793.104 1216.16 791.716C1219.5 790.276 1223.13 789.557 1227.04 789.557C1231.01 789.557 1234.64 790.276 1237.93 791.716C1241.28 793.104 1244.18 795.055 1246.65 797.576C1249.13 800.042 1251.03 802.973 1252.37 806.367C1253.76 809.706 1254.45 813.356 1254.45 817.313C1254.45 821.222 1253.76 824.872 1252.37 828.263C1251.03 831.657 1249.13 834.611 1246.65 837.131C1244.18 839.598 1241.28 841.552 1237.93 842.992C1234.64 844.377 1231.01 845.072 1227.04 845.072C1223.13 845.072 1219.5 844.377 1216.16 842.992C1212.81 841.552 1209.9 839.598 1207.43 837.131C1204.96 834.611 1203.03 831.657 1201.64 828.263C1200.3 824.872 1199.63 821.222 1199.63 817.313Z" fill="white"/>
<path d="M1263.34 790.328H1269.9V826.568C1269.9 830.269 1270.91 833.25 1272.91 835.512C1274.92 837.773 1277.86 838.906 1281.72 838.906C1285.58 838.906 1288.51 837.773 1290.52 835.512C1292.53 833.25 1293.53 830.269 1293.53 826.568V790.328H1300.09V826.568C1300.09 829.242 1299.66 831.708 1298.78 833.97C1297.96 836.231 1296.72 838.186 1295.07 839.83C1293.48 841.474 1291.55 842.76 1289.28 843.685C1287.02 844.609 1284.49 845.073 1281.72 845.073C1278.93 845.073 1276.41 844.609 1274.15 843.685C1271.88 842.76 1269.93 841.474 1268.28 839.83C1266.68 838.186 1265.45 836.231 1264.58 833.97C1263.75 831.708 1263.34 829.242 1263.34 826.568V790.328Z" fill="white"/>
<path d="M1321.71 817.699H1329.05L1348.35 844.302H1340.24L1321.71 817.699ZM1312.06 790.328H1318.62V844.302H1312.06V790.328ZM1315.69 796.11V790.328H1326.73C1330.23 790.328 1333.34 790.997 1336.07 792.334C1338.85 793.616 1341.04 795.469 1342.64 797.884C1344.28 800.299 1345.11 803.178 1345.11 806.521C1345.11 809.809 1344.28 812.688 1342.64 815.154C1341.04 817.573 1338.85 819.449 1336.07 820.786C1333.34 822.069 1330.23 822.713 1326.73 822.713H1315.69V816.928H1326.73C1329.05 816.928 1331.08 816.519 1332.83 815.697C1334.63 814.874 1336.02 813.691 1337 812.149C1338.03 810.607 1338.54 808.731 1338.54 806.521C1338.54 804.31 1338.03 802.434 1337 800.892C1336.02 799.351 1334.63 798.167 1332.83 797.345C1331.08 796.523 1329.05 796.11 1326.73 796.11H1315.69Z" fill="white"/>
<path d="M1378.41 790.328H1384.97V844.302H1378.41V790.328ZM1394.63 844.302H1382.04V837.746H1394.63C1397.66 837.746 1400.45 837.285 1402.97 836.361C1405.49 835.382 1407.65 834.021 1409.45 832.275C1411.25 830.473 1412.64 828.314 1413.62 825.797C1414.6 823.276 1415.09 820.452 1415.09 817.313C1415.09 814.179 1414.6 811.351 1413.62 808.833C1412.64 806.316 1411.25 804.181 1409.45 802.434C1407.65 800.633 1405.49 799.272 1402.97 798.348C1400.45 797.369 1397.66 796.881 1394.63 796.881H1382.04V790.328H1394.63C1399.88 790.328 1404.54 791.457 1408.6 793.722C1412.67 795.984 1415.86 799.142 1418.18 803.205C1420.49 807.213 1421.65 811.917 1421.65 817.313C1421.65 822.713 1420.49 827.441 1418.18 831.504C1415.86 835.512 1412.67 838.647 1408.6 840.908C1404.54 843.17 1399.88 844.302 1394.63 844.302Z" fill="white"/>
<path d="M1434.75 817.313C1434.75 821.375 1435.63 824.998 1437.38 828.187C1439.18 831.373 1441.63 833.891 1444.71 835.743C1447.8 837.592 1451.3 838.52 1455.22 838.52C1459.18 838.52 1462.68 837.592 1465.72 835.743C1468.81 833.891 1471.23 831.373 1472.97 828.187C1474.78 824.998 1475.68 821.375 1475.68 817.313C1475.68 813.254 1474.78 809.631 1472.97 806.442C1471.23 803.256 1468.81 800.738 1465.72 798.886C1462.68 797.037 1459.18 796.109 1455.22 796.109C1451.3 796.109 1447.8 797.037 1444.71 798.886C1441.63 800.738 1439.18 803.256 1437.38 806.442C1435.63 809.631 1434.75 813.254 1434.75 817.313ZM1427.8 817.313C1427.8 813.356 1428.47 809.706 1429.81 806.367C1431.2 802.973 1433.13 800.042 1435.6 797.576C1438.07 795.055 1440.98 793.104 1444.33 791.716C1447.68 790.276 1451.3 789.557 1455.22 789.557C1459.18 789.557 1462.81 790.276 1466.1 791.716C1469.45 793.104 1472.36 795.055 1474.83 797.576C1477.3 800.042 1479.2 802.973 1480.54 806.367C1481.93 809.706 1482.63 813.356 1482.63 817.313C1482.63 821.222 1481.93 824.872 1480.54 828.263C1479.2 831.657 1477.3 834.611 1474.83 837.131C1472.36 839.598 1469.45 841.552 1466.1 842.992C1462.81 844.377 1459.18 845.072 1455.22 845.072C1451.3 845.072 1447.68 844.377 1444.33 842.992C1440.98 841.552 1438.07 839.598 1435.6 837.131C1433.13 834.611 1431.2 831.657 1429.81 828.263C1428.47 824.872 1427.8 821.222 1427.8 817.313Z" fill="white"/>
<path d="M1495.76 817.313C1495.76 821.375 1496.63 824.998 1498.38 828.187C1500.18 831.373 1502.63 833.891 1505.72 835.743C1508.81 837.592 1512.31 838.52 1516.22 838.52C1520.18 838.52 1523.68 837.592 1526.72 835.743C1529.81 833.891 1532.23 831.373 1533.98 828.187C1535.78 824.998 1536.68 821.375 1536.68 817.313C1536.68 813.254 1535.78 809.631 1533.98 806.442C1532.23 803.256 1529.81 800.738 1526.72 798.886C1523.68 797.037 1520.18 796.109 1516.22 796.109C1512.31 796.109 1508.81 797.037 1505.72 798.886C1502.63 800.738 1500.18 803.256 1498.38 806.442C1496.63 809.631 1495.76 813.254 1495.76 817.313ZM1488.81 817.313C1488.81 813.356 1489.48 809.706 1490.82 806.367C1492.2 802.973 1494.14 800.042 1496.61 797.576C1499.08 795.055 1501.99 793.104 1505.33 791.716C1508.68 790.276 1512.31 789.557 1516.22 789.557C1520.18 789.557 1523.81 790.276 1527.11 791.716C1530.45 793.104 1533.36 795.055 1535.83 797.576C1538.3 800.042 1540.21 802.973 1541.54 806.367C1542.94 809.706 1543.63 813.356 1543.63 817.313C1543.63 821.222 1542.94 824.872 1541.54 828.263C1540.21 831.657 1538.3 834.611 1535.83 837.131C1533.36 839.598 1530.45 841.552 1527.11 842.992C1523.81 844.377 1520.18 845.072 1516.22 845.072C1512.31 845.072 1508.68 844.377 1505.33 842.992C1501.99 841.552 1499.08 839.598 1496.61 837.131C1494.14 834.611 1492.2 831.657 1490.82 828.263C1489.48 824.872 1488.81 821.222 1488.81 817.313Z" fill="white"/>
<path d="M1562.55 817.699H1569.89L1589.19 844.302H1581.08L1562.55 817.699ZM1552.9 790.328H1559.46V844.302H1552.9V790.328ZM1556.53 796.11V790.328H1567.57C1571.07 790.328 1574.18 790.997 1576.91 792.334C1579.69 793.616 1581.88 795.469 1583.47 797.884C1585.12 800.299 1585.94 803.178 1585.94 806.521C1585.94 809.809 1585.12 812.688 1583.47 815.154C1581.88 817.573 1579.69 819.449 1576.91 820.786C1574.18 822.069 1571.07 822.713 1567.57 822.713H1556.53V816.928H1567.57C1569.89 816.928 1571.92 816.519 1573.67 815.697C1575.47 814.874 1576.86 813.691 1577.84 812.149C1578.87 810.607 1579.38 808.731 1579.38 806.521C1579.38 804.31 1578.87 802.434 1577.84 800.892C1576.86 799.351 1575.47 798.167 1573.67 797.345C1571.92 796.523 1569.89 796.11 1567.57 796.11H1556.53Z" fill="white"/>
<path d="M1598.11 827.956C1599.35 830.115 1600.63 832.015 1601.97 833.659C1603.36 835.306 1604.91 836.589 1606.6 837.517C1608.3 838.441 1610.24 838.905 1612.4 838.905C1615.28 838.905 1617.59 838.107 1619.35 836.514C1621.1 834.921 1621.97 832.888 1621.97 830.422C1621.97 828.007 1621.41 826.079 1620.27 824.64C1619.14 823.2 1617.65 822.044 1615.8 821.171C1613.99 820.243 1612.06 819.421 1610 818.701C1608.67 818.241 1607.17 817.647 1605.53 816.927C1603.88 816.156 1602.31 815.208 1600.82 814.076C1599.32 812.892 1598.09 811.453 1597.11 809.757C1596.18 808.062 1595.72 805.981 1595.72 803.512C1595.72 800.841 1596.39 798.449 1597.73 796.341C1599.06 794.233 1600.92 792.589 1603.29 791.405C1605.65 790.174 1608.36 789.557 1611.39 789.557C1614.33 789.557 1616.87 790.123 1619.04 791.252C1621.25 792.333 1623.13 793.745 1624.67 795.492C1626.22 797.191 1627.43 798.988 1628.3 800.892L1622.67 804.129C1622 802.792 1621.15 801.482 1620.12 800.196C1619.09 798.913 1617.83 797.859 1616.34 797.037C1614.89 796.212 1613.12 795.802 1611.01 795.802C1608.07 795.802 1605.94 796.522 1604.6 797.962C1603.26 799.35 1602.59 800.916 1602.59 802.666C1602.59 804.156 1602.98 805.545 1603.75 806.827C1604.52 808.062 1605.81 809.246 1607.61 810.375C1609.46 811.453 1611.96 812.534 1615.1 813.612C1616.54 814.127 1618.06 814.795 1619.66 815.618C1621.25 816.44 1622.72 817.494 1624.06 818.78C1625.44 820.014 1626.58 821.529 1627.45 823.33C1628.33 825.077 1628.77 827.185 1628.77 829.651C1628.77 832.015 1628.3 834.15 1627.38 836.05C1626.5 837.953 1625.27 839.57 1623.67 840.908C1622.13 842.245 1620.35 843.271 1618.34 843.991C1616.39 844.711 1614.33 845.072 1612.16 845.072C1609.23 845.072 1606.5 844.455 1603.98 843.22C1601.51 841.938 1599.32 840.266 1597.42 838.209C1595.56 836.101 1594.05 833.867 1592.86 831.503L1598.11 827.956Z" fill="white"/>
<path d="M1633 796.495V790.328H1667.36V796.495H1653.46V844.302H1646.9V796.495H1633Z" fill="white"/>
<path d="M1677.93 844.302V838.135H1705.19V844.302H1677.93ZM1677.93 796.495V790.328H1705.19V796.495H1677.93ZM1677.93 818.084V811.917H1703.64V818.084H1677.93ZM1674.3 790.328H1680.86V844.302H1674.3V790.328Z" fill="white"/>
<path d="M1716.75 790.328H1723.31V844.302H1716.75V790.328ZM1720.38 796.495V790.328H1731.42C1734.92 790.328 1738.03 790.997 1740.76 792.334C1743.54 793.616 1745.73 795.469 1747.32 797.884C1748.97 800.299 1749.8 803.178 1749.8 806.521C1749.8 809.809 1748.97 812.688 1747.32 815.154C1745.73 817.573 1743.54 819.449 1740.76 820.786C1738.03 822.069 1734.92 822.713 1731.42 822.713H1720.38V816.543H1731.42C1734.92 816.543 1737.75 815.697 1739.91 813.998C1742.13 812.302 1743.24 809.809 1743.24 806.521C1743.24 803.178 1742.13 800.684 1739.91 799.04C1737.75 797.345 1734.92 796.495 1731.42 796.495H1720.38Z" fill="white"/>
<path fill-rule="evenodd" clip-rule="evenodd" d="M994.741 569.982L1053.17 578.327C1043.74 615.628 1026.78 644.588 1002.28 664.71C977.311 685.323 945.74 695.632 907.103 695.632C858.576 695.632 820.411 679.436 791.669 646.549C763.399 613.666 749.262 567.528 749.262 508.629C749.262 447.277 763.399 399.667 792.14 365.801C820.882 331.934 858.102 315.246 904.277 315.246C948.569 315.246 984.847 331.443 1012.65 364.819C1040.92 398.195 1055.05 444.823 1055.05 504.703C1055.05 508.629 1055.05 514.028 1054.58 521.391H806.745C809.1 561.147 819.469 592.07 837.842 613.175C856.218 634.279 879.307 645.079 907.103 645.079C927.838 645.079 945.269 639.188 959.877 627.41C974.481 615.136 986.263 595.997 994.741 569.982ZM810.045 470.836H995.212C992.857 439.915 985.792 416.846 974.01 401.63C956.105 377.58 933.019 365.801 904.277 365.801C878.365 365.801 856.689 375.126 839.258 394.268C821.824 413.41 811.929 438.933 810.045 470.836Z" fill="#FF0000"/>
</g>
<defs>
<clipPath id="clip0_14_4404">
<rect width="1669" height="614" fill="white" transform="translate(125 233)"/>
</clipPath>
</defs>
</svg>
