<svg width="1920" height="1080" viewBox="0 0 1920 1080" fill="none" xmlns="http://www.w3.org/2000/svg">
<path d="M1106.58 350.714V494.182H1066.69V415.02L1039.62 494.182H1006.25L978.98 414.41V494.182H939.094V350.714H987.324L1023.34 443.917L1058.55 350.714H1106.58Z" fill="#FAF2E9"/>
<path d="M1169.17 350.714V494.182H1129.28V350.714H1169.17Z" fill="#FAF2E9"/>
<path d="M1264.53 494.182L1236.04 441.272H1231.77V494.182H1191.88V350.714H1254.76C1266.29 350.714 1276.06 352.749 1284.07 356.819C1292.07 360.753 1298.11 366.248 1302.18 373.302C1306.25 380.221 1308.28 388.022 1308.28 396.705C1308.28 406.473 1305.57 415.088 1300.14 422.55C1294.85 429.876 1287.05 435.099 1276.74 438.219L1309.1 494.182H1264.53ZM1231.77 414.003H1251.51C1256.93 414.003 1261 412.714 1263.72 410.136C1266.43 407.558 1267.79 403.828 1267.79 398.943C1267.79 394.331 1266.36 390.736 1263.51 388.158C1260.8 385.445 1256.8 384.088 1251.51 384.088H1231.77V414.003Z" fill="#FAF2E9"/>
<path d="M1417.18 470.78H1366.31L1358.58 494.182H1316.65L1368.95 350.714H1414.95L1467.04 494.182H1424.92L1417.18 470.78ZM1407.21 440.254L1391.75 393.856L1376.48 440.254H1407.21Z" fill="#FAF2E9"/>
<path d="M1475.16 422.143C1475.16 408.033 1478.08 395.484 1483.91 384.495C1489.88 373.37 1498.29 364.755 1509.14 358.65C1520 352.409 1532.48 349.289 1546.59 349.289C1564.5 349.289 1579.55 354.105 1591.76 363.738C1603.97 373.234 1611.84 386.191 1615.37 402.606H1572.43C1569.85 397.18 1566.26 393.042 1561.65 390.193C1557.17 387.344 1551.95 385.919 1545.98 385.919C1536.75 385.919 1529.36 389.243 1523.8 395.891C1518.37 402.403 1515.66 411.154 1515.66 422.143C1515.66 433.267 1518.37 442.154 1523.8 448.801C1529.36 455.313 1536.75 458.569 1545.98 458.569C1551.95 458.569 1557.17 457.145 1561.65 454.296C1566.26 451.447 1569.85 447.309 1572.43 441.882H1615.37C1611.84 458.298 1603.97 471.322 1591.76 480.955C1579.55 490.451 1564.5 495.2 1546.59 495.2C1532.48 495.2 1520 492.147 1509.14 486.042C1498.29 479.801 1489.88 471.187 1483.91 460.197C1478.08 449.073 1475.16 436.388 1475.16 422.143Z" fill="#FAF2E9"/>
<path d="M1674.14 463.657H1718.71V494.182H1634.26V350.714H1674.14V463.657Z" fill="#FAF2E9"/>
<path d="M1774.11 382.663V406.066H1819.89V436.388H1774.11V462.232H1826V494.182H1734.22V350.714H1826V382.663H1774.11Z" fill="#FAF2E9"/>
<path d="M1036.54 658.205C1036.54 644.095 1039.46 631.546 1045.29 620.557C1051.26 609.432 1059.67 600.817 1070.53 594.712C1081.38 588.471 1093.86 585.351 1107.97 585.351C1125.88 585.351 1140.94 590.167 1153.15 599.8C1165.36 609.296 1173.23 622.253 1176.75 638.668H1133.82C1131.24 633.242 1127.64 629.104 1123.03 626.255C1118.55 623.406 1113.33 621.981 1107.36 621.981C1098.14 621.981 1090.74 625.305 1085.18 631.953C1079.75 638.465 1077.04 647.215 1077.04 658.205C1077.04 669.329 1079.75 678.216 1085.18 684.863C1090.74 691.375 1098.14 694.631 1107.36 694.631C1113.33 694.631 1118.55 693.207 1123.03 690.358C1127.64 687.509 1131.24 683.371 1133.82 677.944H1176.75C1173.23 694.36 1165.36 707.384 1153.15 717.017C1140.94 726.513 1125.88 731.262 1107.97 731.262C1093.86 731.262 1081.38 728.209 1070.53 722.104C1059.67 715.863 1051.26 707.248 1045.29 696.259C1039.46 685.135 1036.54 672.45 1036.54 658.205Z" fill="#FAF2E9"/>
<path d="M1264.43 731.669C1250.99 731.669 1238.65 728.548 1227.39 722.308C1216.13 715.931 1207.17 707.181 1200.53 696.056C1194.01 684.795 1190.76 672.111 1190.76 658.001C1190.76 643.892 1194.01 631.275 1200.53 620.15C1207.17 608.889 1216.13 600.139 1227.39 593.898C1238.65 587.657 1250.99 584.537 1264.43 584.537C1277.99 584.537 1290.34 587.657 1301.46 593.898C1312.72 600.139 1321.61 608.889 1328.12 620.15C1334.63 631.275 1337.89 643.892 1337.89 658.001C1337.89 672.111 1334.63 684.795 1328.12 696.056C1321.61 707.181 1312.72 715.931 1301.46 722.308C1290.2 728.548 1277.86 731.669 1264.43 731.669ZM1264.43 694.631C1274.6 694.631 1282.61 691.308 1288.44 684.66C1294.41 678.012 1297.39 669.126 1297.39 658.001C1297.39 646.605 1294.41 637.651 1288.44 631.139C1282.61 624.491 1274.6 621.167 1264.43 621.167C1254.11 621.167 1246.04 624.491 1240.21 631.139C1234.38 637.651 1231.46 646.605 1231.46 658.001C1231.46 669.262 1234.38 678.216 1240.21 684.863C1246.04 691.375 1254.11 694.631 1264.43 694.631Z" fill="#FAF2E9"/>
<path d="M1412.6 586.775C1427.66 586.775 1440.82 589.828 1452.08 595.933C1463.47 601.902 1472.22 610.314 1478.33 621.167C1484.43 632.021 1487.49 644.434 1487.49 658.408C1487.49 672.246 1484.37 684.592 1478.12 695.445C1472.02 706.299 1463.27 714.846 1451.87 721.087C1440.61 727.192 1427.52 730.244 1412.6 730.244H1355.82V586.775H1412.6ZM1409.54 695.038C1421.21 695.038 1430.37 691.85 1437.02 685.474C1443.67 679.097 1446.99 670.076 1446.99 658.408C1446.99 646.605 1443.67 637.515 1437.02 631.139C1430.37 624.627 1421.21 621.371 1409.54 621.371H1395.71V695.038H1409.54Z" fill="#FAF2E9"/>
<path d="M1545.35 618.725V642.128H1591.14V672.45H1545.35V698.294H1597.24V730.244H1505.47V586.775H1597.24V618.725H1545.35Z" fill="#FAF2E9"/>
<path d="M1671.09 731.669C1654.4 731.669 1640.7 727.734 1629.98 719.866C1619.26 711.861 1613.49 700.465 1612.68 685.677H1655.21C1655.62 690.697 1657.11 694.36 1659.69 696.666C1662.27 698.973 1665.59 700.126 1669.66 700.126C1673.32 700.126 1676.31 699.244 1678.62 697.48C1681.06 695.581 1682.28 693.003 1682.28 689.747C1682.28 685.542 1680.31 682.286 1676.38 679.979C1672.44 677.673 1666.07 675.095 1657.25 672.246C1647.89 669.126 1640.29 666.141 1634.46 663.292C1628.76 660.307 1623.74 656.034 1619.4 650.472C1615.19 644.773 1613.09 637.38 1613.09 628.29C1613.09 619.064 1615.39 611.196 1620.01 604.684C1624.62 598.036 1631 593.016 1639.14 589.625C1647.28 586.233 1656.5 584.537 1666.81 584.537C1683.5 584.537 1696.79 588.471 1706.7 596.34C1716.74 604.073 1722.1 614.994 1722.77 629.104H1679.43C1679.29 624.762 1677.94 621.506 1675.36 619.336C1672.92 617.165 1669.73 616.08 1665.79 616.08C1662.81 616.08 1660.37 616.962 1658.47 618.725C1656.57 620.489 1655.62 622.999 1655.62 626.255C1655.62 628.968 1656.64 631.342 1658.67 633.377C1660.84 635.277 1663.49 636.973 1666.61 638.465C1669.73 639.822 1674.34 641.585 1680.45 643.756C1689.54 646.876 1697 649.997 1702.83 653.117C1708.8 656.102 1713.89 660.375 1718.09 665.938C1722.44 671.364 1724.61 678.283 1724.61 686.695C1724.61 695.242 1722.44 702.907 1718.09 709.69C1713.89 716.474 1707.72 721.833 1699.58 725.767C1691.57 729.701 1682.07 731.669 1671.09 731.669Z" fill="#FAF2E9"/>
<rect x="93.6914" y="150.439" width="779.121" height="779.121" rx="50" fill="#89A773"/>
<g filter="url(#filter0_d_21_4384)">
<path d="M364.385 565.095H427.782L394.379 733H226L255.995 580.794C287.353 424.265 359.158 346 471.411 346L462.549 388.317C437.553 388.317 419.148 396.735 407.332 413.571C395.515 430.407 384.608 464.079 374.61 514.587L364.385 565.095ZM632.973 565.095H696.371L662.968 733H494.589L524.584 580.794C555.942 424.265 627.747 346 740 346L731.82 388.317C706.37 388.317 687.737 396.735 675.92 413.571C664.104 430.407 653.197 464.079 643.199 514.587L632.973 565.095Z" fill="white"/>
</g>
<defs>
<filter id="filter0_d_21_4384" x="226" y="346" width="528" height="401" filterUnits="userSpaceOnUse" color-interpolation-filters="sRGB">
<feFlood flood-opacity="0" result="BackgroundImageFix"/>
<feColorMatrix in="SourceAlpha" type="matrix" values="0 0 0 0 0 0 0 0 0 0 0 0 0 0 0 0 0 0 127 0" result="hardAlpha"/>
<feOffset dx="9" dy="9"/>
<feGaussianBlur stdDeviation="2.5"/>
<feComposite in2="hardAlpha" operator="out"/>
<feColorMatrix type="matrix" values="0 0 0 0 0 0 0 0 0 0 0 0 0 0 0 0 0 0 0.4 0"/>
<feBlend mode="normal" in2="BackgroundImageFix" result="effect1_dropShadow_21_4384"/>
<feBlend mode="normal" in="SourceGraphic" in2="effect1_dropShadow_21_4384" result="shape"/>
</filter>
</defs>
</svg>
