<svg id="Group_2488" data-name="Group 2488" xmlns="http://www.w3.org/2000/svg" width="157.811" height="98.54" viewBox="0 0 157.811 98.54">
  <g id="Group_71" data-name="Group 71">
    <path id="Path_21749" data-name="Path 21749" d="M62.731,1337.234q6.708-10.253,13.411-20.508c4.657-7.154,9.268-14.338,13.933-21.487,3.651-5.594,10.322-8.581,16.431-7.426,7.075,1.338,12.259,6.278,13.551,13.209a15.866,15.866,0,0,1-2.271,11.845q-18.545,28.671-37.127,57.317c-.327.5-.734.954-1.1,1.43-.514-1.288.138-2.5.292-3.729a15.506,15.506,0,0,0-3.158-11.9c-4.442-5.729-8.971-11.39-13.416-17.116a3.284,3.284,0,0,1-.629-1.093A.675.675,0,0,1,62.731,1337.234Z" transform="translate(37.45 -1287.568)" fill="#fbaf40"/>
    <path id="Path_21750" data-name="Path 21750" d="M-155.083,1362.471q-9.388,14.576-18.777,29.151c-2.755,4.273-5.509,8.548-8.3,12.8a16.451,16.451,0,0,1-16.76,7.419,16.32,16.32,0,0,1-13.187-12.909,15.614,15.614,0,0,1,2.166-12.023q18.778-29.052,37.606-58.071a3.517,3.517,0,0,1,.358-.4c.594.583.269,1.265.143,1.882a16.446,16.446,0,0,0,3.762,14.535c4.209,5.068,8.114,10.385,12.232,15.531C-155.37,1360.965-154.727,1361.557-155.083,1362.471Z" transform="translate(212.481 -1313.568)" fill="#ec008b"/>
    <path id="Path_21751" data-name="Path 21751" d="M-11.526,1360.569a2.862,2.862,0,0,1,.017.33c-.17,1.535-1.261,2.6-2.033,3.8-3.512,5.448-7.069,10.868-10.5,16.368A14.717,14.717,0,0,0-25.45,1394c.238.711.772,1.439.148,2.223-3.948-4.967-7.912-9.921-11.839-14.9q-8.475-10.758-16.907-21.551c-.2-.875.335-1.507.745-2.162,3.436-5.49,7.037-10.874,10.543-16.318a19.972,19.972,0,0,0,3.27-7.988,17.272,17.272,0,0,0-.636-6.8c-.185-.743-.682-1.455-.228-2.263q5.812,7.3,11.622,14.6Q-20.119,1349.7-11.526,1360.569Z" transform="translate(111.707 -1310.902)" fill="#45c9f4"/>
    <path id="Path_21752" data-name="Path 21752" d="M-71.546,1307.9c2.337,6.006,1.887,11.687-1.845,17.06-1.932,2.781-3.734,5.652-5.56,8.506-2.117,3.308-4.195,6.64-6.289,9.962l-.128.04-.134-.005c-1.94-3.2-4.492-5.947-6.736-8.922-2.356-3.125-4.845-6.15-7.285-9.211-3.818-4.788-4.264-10.179-2.87-15.905,2.027-4.026,4.655-7.448,8.918-9.384a16.577,16.577,0,0,1,20.449,5.581C-72.512,1306.366-72.038,1307.139-71.546,1307.9Z" transform="translate(142.899 -1294.558)" fill="#83298f"/>
  </g>
  <path id="Path_21753" data-name="Path 21753" d="M22.509,1460.34c-.306-1.1-.627-2.192-.916-3.293a15.491,15.491,0,0,1,2.4-13.071c3.042-4.568,5.911-9.252,8.881-13.87,1.107-1.721,2.283-3.4,3.428-5.092,4.975,6.313,10.079,12.53,14.881,18.972,3.391,4.549,3.508,9.761,1.928,15.074-2.051,4.389-5.076,7.785-9.72,9.507a16.454,16.454,0,0,1-18.531-5.008C24.018,1462.533,23.29,1461.416,22.509,1460.34Z" transform="translate(63.896 -1375.016)" fill="#3ba8b7"/>
</svg>
