<svg width="1920" height="1080" viewBox="0 0 1920 1080" fill="none" xmlns="http://www.w3.org/2000/svg">
<path d="M607 731.334V845.921H586.074L536.222 773.8H535.383V845.921H511.156V731.334H532.417L581.878 803.398H582.885V731.334H607ZM627.015 845.921V731.334H704.227V751.309H651.243V778.612H700.255V798.587H651.243V825.946H704.451V845.921H627.015ZM749.282 845.921L716.495 731.334H742.96L761.927 810.952H762.878L783.803 731.334H806.463L827.333 811.12H828.34L847.307 731.334H873.772L840.985 845.921H817.374L795.553 771.003H794.658L772.893 845.921H749.282ZM947.823 764.289C947.374 759.776 945.454 756.27 942.059 753.77C938.665 751.271 934.059 750.022 928.24 750.022C924.285 750.022 920.947 750.581 918.225 751.7C915.501 752.782 913.413 754.293 911.958 756.232C910.541 758.172 909.832 760.372 909.832 762.834C909.758 764.886 910.186 766.676 911.119 768.206C912.089 769.735 913.413 771.059 915.092 772.178C916.77 773.26 918.71 774.211 920.91 775.032C923.111 775.815 925.461 776.486 927.96 777.046L938.255 779.508C943.253 780.626 947.841 782.118 952.018 783.984C956.196 785.849 959.814 788.143 962.873 790.866C965.932 793.588 968.3 796.796 969.979 800.489C971.695 804.181 972.572 808.415 972.608 813.19C972.572 820.202 970.78 826.282 967.238 831.429C963.731 836.54 958.658 840.513 952.018 843.347C945.416 846.145 937.453 847.543 928.128 847.543C918.877 847.543 910.82 846.126 903.957 843.291C897.131 840.456 891.797 836.26 887.955 830.703C884.151 825.107 882.155 818.188 881.968 809.945H905.412C905.673 813.787 906.774 816.994 908.713 819.568C910.69 822.104 913.319 824.026 916.602 825.331C919.922 826.599 923.67 827.234 927.848 827.234C931.951 827.234 935.514 826.636 938.535 825.443C941.593 824.25 943.962 822.59 945.641 820.463C947.319 818.337 948.159 815.894 948.159 813.134C948.159 810.56 947.393 808.397 945.864 806.644C944.372 804.89 942.172 803.398 939.262 802.168C936.39 800.937 932.865 799.818 928.687 798.811L916.21 795.678C906.549 793.328 898.921 789.653 893.327 784.655C887.732 779.657 884.952 772.924 884.99 764.457C884.952 757.519 886.799 751.458 890.529 746.273C894.296 741.088 899.463 737.041 906.027 734.131C912.592 731.222 920.052 729.768 928.408 729.768C936.912 729.768 944.335 731.222 950.676 734.131C957.054 737.041 962.015 741.088 965.559 746.273C969.102 751.458 970.93 757.463 971.042 764.289H947.823ZM988.904 845.921V731.334H1013.13V778.612H1062.31V731.334H1086.48V845.921H1062.31V798.587H1013.13V845.921H988.904ZM1177.23 731.334H1201.46V805.748C1201.46 814.104 1199.46 821.415 1195.47 827.681C1191.52 833.947 1185.98 838.834 1178.86 842.34C1171.73 845.809 1163.43 847.543 1153.96 847.543C1144.45 847.543 1136.13 845.809 1129 842.34C1121.88 838.834 1116.34 833.947 1112.39 827.681C1108.43 821.415 1106.46 814.104 1106.46 805.748V731.334H1130.68V803.678C1130.68 808.042 1131.63 811.922 1133.54 815.316C1135.48 818.71 1138.2 821.377 1141.7 823.317C1145.21 825.256 1149.3 826.227 1153.96 826.227C1158.66 826.227 1162.74 825.256 1166.21 823.317C1169.72 821.377 1172.42 818.71 1174.32 815.316C1176.26 811.922 1177.23 808.042 1177.23 803.678V731.334ZM1317.24 731.334V845.921H1296.31L1246.46 773.8H1245.62V845.921H1221.39V731.334H1242.65L1292.11 803.398H1293.12V731.334H1317.24ZM1332.89 751.309V731.334H1427V751.309H1391.91V845.921H1367.97V751.309H1332.89Z" fill="white"/>
<path d="M539.315 913.084V970.379H532.601L501.38 925.393H500.821V970.379H493.883V913.084H500.597L531.929 958.184H532.489V913.084H539.315ZM570.318 971.27C566.178 971.27 562.606 970.362 559.604 968.528C556.62 966.685 554.316 964.114 552.694 960.806C551.09 957.49 550.288 953.633 550.288 949.228C550.288 944.827 551.09 940.947 552.694 937.59C554.316 934.215 556.573 931.585 559.464 929.701C562.373 927.798 565.768 926.848 569.647 926.848C571.885 926.848 574.095 927.221 576.277 927.966C578.459 928.713 580.446 929.925 582.236 931.603C584.026 933.263 585.453 935.464 586.516 938.206C587.579 940.947 588.111 944.323 588.111 948.333V951.131H554.988V945.423H581.397C581.397 942.999 580.912 940.835 579.942 938.933C578.99 937.031 577.629 935.529 575.857 934.429C574.104 933.329 572.034 932.778 569.647 932.778C567.017 932.778 564.742 933.431 562.821 934.737C560.919 936.024 559.455 937.702 558.429 939.772C557.403 941.843 556.89 944.061 556.89 946.43V950.235C556.89 953.479 557.45 956.23 558.569 958.484C559.706 960.729 561.282 962.434 563.296 963.609C565.311 964.765 567.651 965.34 570.318 965.34C572.053 965.34 573.62 965.1 575.018 964.611C576.436 964.114 577.657 963.369 578.683 962.374C579.709 961.372 580.501 960.121 581.061 958.629L587.44 960.42C586.768 962.58 585.639 964.483 584.054 966.128C582.469 967.748 580.511 969.016 578.179 969.933C575.848 970.824 573.228 971.27 570.318 971.27ZM607.889 970.379L594.797 927.407H601.735L611.022 960.309H611.47L620.646 927.407H627.696L636.76 960.198H637.207L646.495 927.407H653.433L640.34 970.379H633.851L624.45 937.367H623.779L614.38 970.379H607.889ZM692.598 937.031L686.667 938.71C686.295 937.721 685.745 936.76 685.017 935.828C684.308 934.876 683.338 934.093 682.107 933.478C680.877 932.862 679.301 932.555 677.379 932.555C674.75 932.555 672.559 933.161 670.806 934.373C669.071 935.567 668.204 937.086 668.204 938.933C668.204 940.574 668.801 941.87 669.994 942.821C671.188 943.773 673.053 944.565 675.589 945.2L681.968 946.766C685.81 947.699 688.672 949.125 690.556 951.045C692.439 952.948 693.381 955.399 693.381 958.407C693.381 960.866 692.673 963.069 691.256 965.005C689.856 966.942 687.898 968.476 685.38 969.59C682.862 970.713 679.935 971.27 676.596 971.27C672.214 971.27 668.586 970.319 665.714 968.416C662.842 966.514 661.024 963.737 660.259 960.086L666.525 958.518C667.122 960.832 668.251 962.563 669.91 963.72C671.589 964.877 673.78 965.451 676.485 965.451C679.561 965.451 682.005 964.8 683.814 963.497C685.642 962.169 686.555 960.583 686.555 958.741C686.555 957.25 686.033 955.998 684.989 954.987C683.945 953.967 682.341 953.205 680.178 952.699L673.016 951.019C669.08 950.086 666.19 948.64 664.343 946.682C662.516 944.705 661.601 942.234 661.601 939.268C661.601 936.844 662.283 934.7 663.644 932.834C665.024 930.969 666.899 929.506 669.267 928.442C671.654 927.379 674.359 926.848 677.379 926.848C681.632 926.848 684.971 927.78 687.395 929.645C689.838 931.51 691.573 933.972 692.598 937.031ZM744.164 927.407V933.002H721.896V927.407H744.164ZM728.386 917.113H734.988V958.072C734.988 959.932 735.258 961.329 735.799 962.263C736.358 963.18 737.067 963.797 737.926 964.114C738.801 964.405 739.725 964.56 740.695 964.56C741.422 964.56 742.019 964.517 742.485 964.448C742.952 964.354 743.325 964.277 743.604 964.226L744.947 970.156C744.5 970.319 743.875 970.49 743.073 970.653C742.271 970.841 741.254 970.936 740.023 970.936C738.159 970.936 736.331 970.533 734.54 969.736C732.768 968.93 731.295 967.713 730.12 966.068C728.964 964.431 728.386 962.357 728.386 959.855V917.113ZM761.62 944.528V970.379H755.018V913.084H761.62V934.121H762.18C763.187 931.902 764.698 930.14 766.712 928.834C768.745 927.51 771.449 926.848 774.825 926.848C777.752 926.848 780.317 927.435 782.518 928.61C784.719 929.766 786.425 931.548 787.637 933.953C788.868 936.341 789.484 939.381 789.484 943.073V970.379H782.881V943.521C782.881 940.108 781.995 937.469 780.224 935.604C778.47 933.72 776.037 932.778 772.922 932.778C770.758 932.778 768.819 933.235 767.103 934.15C765.407 935.063 764.064 936.397 763.075 938.15C762.105 939.903 761.62 942.029 761.62 944.528ZM814.207 971.381C811.484 971.381 809.013 970.867 806.793 969.847C804.574 968.802 802.812 967.302 801.506 965.34C800.2 963.369 799.548 960.978 799.548 958.184C799.548 955.716 800.032 953.719 801.002 952.193C801.973 950.646 803.268 949.433 804.891 948.556C806.514 947.68 808.304 947.028 810.262 946.598C812.239 946.151 814.226 945.796 816.221 945.535C818.832 945.2 820.949 944.948 822.571 944.78C824.213 944.594 825.406 944.286 826.152 943.857C826.917 943.427 827.299 942.682 827.299 941.618V941.395C827.299 938.634 826.544 936.49 825.033 934.96C823.541 933.431 821.275 932.666 818.236 932.666C815.084 932.666 812.612 933.357 810.822 934.737C809.031 936.117 807.773 937.59 807.045 939.157L800.779 936.918C801.898 934.308 803.39 932.274 805.255 930.82C807.138 929.347 809.19 928.321 811.41 927.743C813.647 927.146 815.848 926.848 818.011 926.848C819.392 926.848 820.977 927.015 822.767 927.351C824.576 927.668 826.32 928.331 827.998 929.338C829.696 930.345 831.104 931.865 832.223 933.898C833.342 935.93 833.901 938.653 833.901 942.066V970.379H827.299V964.56H826.963C826.516 965.494 825.77 966.488 824.726 967.551C823.681 968.613 822.292 969.522 820.557 970.267C818.823 971.013 816.706 971.381 814.207 971.381ZM815.214 965.451C817.825 965.451 820.026 964.937 821.816 963.917C823.625 962.889 824.987 961.569 825.9 959.941C826.833 958.321 827.299 956.615 827.299 954.824V948.78C827.02 949.116 826.404 949.424 825.453 949.704C824.521 949.964 823.438 950.198 822.208 950.403C820.995 950.589 819.812 950.754 818.655 950.908C817.517 951.036 816.594 951.148 815.886 951.242C814.169 951.465 812.566 951.833 811.074 952.331C809.601 952.819 808.407 953.556 807.492 954.542C806.598 955.51 806.15 956.838 806.15 958.518C806.15 960.806 806.999 962.546 808.696 963.72C810.411 964.877 812.585 965.451 815.214 965.451ZM864.639 927.407V933.002H842.371V927.407H864.639ZM848.861 917.113H855.463V958.072C855.463 959.932 855.734 961.329 856.275 962.263C856.834 963.18 857.543 963.797 858.401 964.114C859.277 964.405 860.2 964.56 861.171 964.56C861.897 964.56 862.495 964.517 862.961 964.448C863.427 964.354 863.8 964.277 864.08 964.226L865.422 970.156C864.975 970.319 864.35 970.49 863.548 970.653C862.747 970.841 861.73 970.936 860.499 970.936C858.634 970.936 856.806 970.533 855.016 969.736C853.244 968.93 851.77 967.713 850.595 966.068C849.439 964.431 848.861 962.357 848.861 959.855V917.113ZM896.727 970.379V927.407H903.106V934.121H903.665C904.56 931.827 906.006 930.046 908.001 928.778C909.997 927.491 912.393 926.848 915.191 926.848C918.026 926.848 920.385 927.491 922.269 928.778C924.17 930.046 925.654 931.827 926.716 934.121H927.164C928.264 931.902 929.915 930.14 932.115 928.834C934.316 927.51 936.956 926.848 940.032 926.848C943.874 926.848 947.017 928.05 949.46 930.457C951.903 932.844 953.125 936.565 953.125 941.618V970.379H946.523V941.618C946.523 938.448 945.656 936.182 943.921 934.821C942.187 933.459 940.145 932.778 937.795 932.778C934.773 932.778 932.432 933.692 930.772 935.52C929.113 937.329 928.283 939.623 928.283 942.402V970.379H921.569V940.947C921.569 938.504 920.777 936.536 919.191 935.044C917.606 933.533 915.564 932.778 913.065 932.778C911.349 932.778 909.745 933.235 908.253 934.15C906.779 935.063 905.586 936.331 904.672 937.954C903.777 939.558 903.329 941.413 903.329 943.521V970.379H896.727ZM977.841 971.381C975.118 971.381 972.647 970.867 970.428 969.847C968.208 968.802 966.446 967.302 965.14 965.34C963.835 963.369 963.182 960.978 963.182 958.184C963.182 955.716 963.667 953.719 964.637 952.193C965.606 950.646 966.903 949.433 968.525 948.556C970.148 947.68 971.939 947.028 973.897 946.598C975.873 946.151 977.86 945.796 979.856 945.535C982.467 945.2 984.584 944.948 986.206 944.78C987.847 944.594 989.041 944.286 989.786 943.857C990.552 943.427 990.934 942.682 990.934 941.618V941.395C990.934 938.634 990.178 936.49 988.668 934.96C987.176 933.431 984.909 932.666 981.87 932.666C978.718 932.666 976.247 933.357 974.457 934.737C972.665 936.117 971.407 937.59 970.68 939.157L964.413 936.918C965.532 934.308 967.024 932.274 968.889 930.82C970.772 929.347 972.824 928.321 975.044 927.743C977.282 927.146 979.483 926.848 981.646 926.848C983.026 926.848 984.611 927.015 986.401 927.351C988.21 927.668 989.954 928.331 991.633 929.338C993.33 930.345 994.738 931.865 995.857 933.898C996.976 935.93 997.536 938.653 997.536 942.066V970.379H990.934V964.56H990.598C990.151 965.494 989.404 966.488 988.359 967.551C987.316 968.613 985.926 969.522 984.192 970.267C982.457 971.013 980.341 971.381 977.841 971.381ZM978.849 965.451C981.459 965.451 983.66 964.937 985.451 963.917C987.26 962.889 988.621 961.569 989.535 959.941C990.468 958.321 990.934 956.615 990.934 954.824V948.78C990.654 949.116 990.038 949.424 989.087 949.704C988.155 949.964 987.073 950.198 985.842 950.403C984.63 950.589 983.446 950.754 982.289 950.908C981.151 951.036 980.228 951.148 979.52 951.242C977.804 951.465 976.2 951.833 974.708 952.331C973.234 952.819 972.041 953.556 971.127 954.542C970.232 955.51 969.784 956.838 969.784 958.518C969.784 960.806 970.633 962.546 972.33 963.72C974.046 964.877 976.219 965.451 978.849 965.451ZM1028.27 927.407V933.002H1006.01V927.407H1028.27ZM1012.5 917.113H1019.1V958.072C1019.1 959.932 1019.37 961.329 1019.91 962.263C1020.47 963.18 1021.18 963.797 1022.03 964.114C1022.91 964.405 1023.83 964.56 1024.8 964.56C1025.53 964.56 1026.13 964.517 1026.59 964.448C1027.06 964.354 1027.43 964.277 1027.71 964.226L1029.06 970.156C1028.61 970.319 1027.98 970.49 1027.18 970.653C1026.38 970.841 1025.36 970.936 1024.13 970.936C1022.27 970.936 1020.44 970.533 1018.65 969.736C1016.88 968.93 1015.41 967.713 1014.23 966.068C1013.07 964.431 1012.5 962.357 1012.5 959.855V917.113ZM1056.89 927.407V933.002H1034.62V927.407H1056.89ZM1041.11 917.113H1047.72V958.072C1047.72 959.932 1047.99 961.329 1048.53 962.263C1049.09 963.18 1049.8 963.797 1050.65 964.114C1051.53 964.405 1052.45 964.56 1053.42 964.56C1054.15 964.56 1054.75 964.517 1055.21 964.448C1055.68 964.354 1056.05 964.277 1056.33 964.226L1057.68 970.156C1057.23 970.319 1056.6 970.49 1055.8 970.653C1055 970.841 1053.98 970.936 1052.75 970.936C1050.89 970.936 1049.06 970.533 1047.27 969.736C1045.5 968.93 1044.02 967.713 1042.85 966.068C1041.69 964.431 1041.11 962.357 1041.11 959.855V917.113ZM1084.38 971.27C1080.24 971.27 1076.67 970.362 1073.66 968.528C1070.68 966.685 1068.38 964.114 1066.75 960.806C1065.15 957.49 1064.35 953.633 1064.35 949.228C1064.35 944.827 1065.15 940.947 1066.75 937.59C1068.38 934.215 1070.63 931.585 1073.52 929.701C1076.43 927.798 1079.83 926.848 1083.71 926.848C1085.94 926.848 1088.15 927.221 1090.34 927.966C1092.52 928.713 1094.51 929.925 1096.3 931.603C1098.09 933.263 1099.51 935.464 1100.58 938.206C1101.64 940.947 1102.17 944.323 1102.17 948.333V951.131H1069.05V945.423H1095.46C1095.46 942.999 1094.97 940.835 1094 938.933C1093.05 937.031 1091.69 935.529 1089.92 934.429C1088.16 933.329 1086.09 932.778 1083.71 932.778C1081.08 932.778 1078.8 933.431 1076.88 934.737C1074.98 936.024 1073.51 937.702 1072.49 939.772C1071.46 941.843 1070.95 944.061 1070.95 946.43V950.235C1070.95 953.479 1071.51 956.23 1072.63 958.484C1073.77 960.729 1075.34 962.434 1077.36 963.609C1079.37 964.765 1081.71 965.34 1084.38 965.34C1086.11 965.34 1087.68 965.1 1089.08 964.611C1090.5 964.114 1091.72 963.369 1092.74 962.374C1093.77 961.372 1094.56 960.121 1095.12 958.629L1101.5 960.42C1100.83 962.58 1099.7 964.483 1098.11 966.128C1096.53 967.748 1094.57 969.016 1092.24 969.933C1089.91 970.824 1087.29 971.27 1084.38 971.27ZM1112.21 970.379V927.407H1118.59V933.898H1119.04C1119.82 931.771 1121.24 930.046 1123.29 928.722C1125.34 927.398 1127.66 926.736 1130.23 926.736C1130.71 926.736 1131.32 926.745 1132.05 926.764C1132.78 926.782 1133.33 926.81 1133.7 926.848V933.562C1133.47 933.506 1132.96 933.422 1132.16 933.31C1131.38 933.179 1130.55 933.114 1129.67 933.114C1127.58 933.114 1125.72 933.552 1124.08 934.429C1122.45 935.287 1121.17 936.481 1120.21 938.009C1119.28 939.52 1118.82 941.245 1118.82 943.186V970.379H1112.21ZM1171.96 937.031L1166.03 938.71C1165.66 937.721 1165.11 936.76 1164.38 935.828C1163.67 934.876 1162.7 934.093 1161.47 933.478C1160.24 932.862 1158.66 932.555 1156.74 932.555C1154.11 932.555 1151.92 933.161 1150.17 934.373C1148.43 935.567 1147.57 937.086 1147.57 938.933C1147.57 940.574 1148.16 941.87 1149.36 942.821C1150.55 943.773 1152.42 944.565 1154.95 945.2L1161.33 946.766C1165.17 947.699 1168.04 949.125 1169.92 951.045C1171.8 952.948 1172.75 955.399 1172.75 958.407C1172.75 960.866 1172.04 963.069 1170.62 965.005C1169.22 966.942 1167.26 968.476 1164.74 969.59C1162.23 970.713 1159.3 971.27 1155.96 971.27C1151.58 971.27 1147.95 970.319 1145.08 968.416C1142.2 966.514 1140.39 963.737 1139.62 960.086L1145.89 958.518C1146.49 960.832 1147.61 962.563 1149.27 963.72C1150.95 964.877 1153.14 965.451 1155.85 965.451C1158.93 965.451 1161.37 964.8 1163.18 963.497C1165.01 962.169 1165.92 960.583 1165.92 958.741C1165.92 957.25 1165.4 955.998 1164.35 954.987C1163.31 953.967 1161.7 953.205 1159.54 952.699L1152.38 951.019C1148.44 950.086 1145.55 948.64 1143.71 946.682C1141.88 944.705 1140.96 942.234 1140.96 939.268C1140.96 936.844 1141.65 934.7 1143.01 932.834C1144.39 930.969 1146.26 929.506 1148.63 928.442C1151.02 927.379 1153.72 926.848 1156.74 926.848C1161 926.848 1164.33 927.78 1166.76 929.645C1169.2 931.51 1170.94 933.972 1171.96 937.031ZM1223.53 927.407V933.002H1201.26V927.407H1223.53ZM1207.75 917.113H1214.35V958.072C1214.35 959.932 1214.62 961.329 1215.16 962.263C1215.72 963.18 1216.43 963.797 1217.29 964.114C1218.16 964.405 1219.09 964.56 1220.06 964.56C1220.79 964.56 1221.38 964.517 1221.85 964.448C1222.32 964.354 1222.69 964.277 1222.97 964.226L1224.31 970.156C1223.86 970.319 1223.24 970.49 1222.44 970.653C1221.63 970.841 1220.62 970.936 1219.39 970.936C1217.52 970.936 1215.69 970.533 1213.9 969.736C1212.13 968.93 1210.66 967.713 1209.48 966.068C1208.33 964.431 1207.75 962.357 1207.75 959.855V917.113ZM1250.45 971.27C1246.57 971.27 1243.17 970.353 1240.24 968.502C1237.33 966.659 1235.06 964.071 1233.42 960.755C1231.79 957.438 1230.98 953.556 1230.98 949.116C1230.98 944.64 1231.79 940.733 1233.42 937.394C1235.06 934.056 1237.33 931.464 1240.24 929.617C1243.17 927.771 1246.57 926.848 1250.45 926.848C1254.33 926.848 1257.73 927.771 1260.64 929.617C1263.56 931.464 1265.84 934.056 1267.46 937.394C1269.1 940.733 1269.92 944.64 1269.92 949.116C1269.92 953.556 1269.1 957.438 1267.46 960.755C1265.84 964.071 1263.56 966.659 1260.64 968.502C1257.73 970.353 1254.33 971.27 1250.45 971.27ZM1250.45 965.34C1253.4 965.34 1255.82 964.585 1257.73 963.077C1259.63 961.569 1261.04 959.581 1261.95 957.121C1262.87 954.653 1263.32 951.988 1263.32 949.116C1263.32 946.244 1262.87 943.568 1261.95 941.087C1261.04 938.607 1259.63 936.601 1257.73 935.073C1255.82 933.543 1253.4 932.778 1250.45 932.778C1247.51 932.778 1245.08 933.543 1243.18 935.073C1241.28 936.601 1239.87 938.607 1238.96 941.087C1238.04 943.568 1237.59 946.244 1237.59 949.116C1237.59 951.988 1238.04 954.653 1238.96 957.121C1239.87 959.581 1241.28 961.569 1243.18 963.077C1245.08 964.585 1247.51 965.34 1250.45 965.34ZM1306.41 986.49C1305.29 986.49 1304.29 986.396 1303.42 986.207C1302.54 986.044 1301.93 985.873 1301.6 985.71L1303.28 979.891C1304.88 980.303 1306.3 980.448 1307.53 980.337C1308.76 980.225 1309.85 979.677 1310.8 978.683C1311.77 977.714 1312.66 976.138 1313.46 973.961L1314.69 970.601L1298.8 927.407H1305.96L1317.82 961.646H1318.27L1330.13 927.407H1337.3L1319.06 976.643C1318.24 978.863 1317.22 980.697 1316.01 982.154C1314.79 983.628 1313.39 984.716 1311.78 985.427C1310.2 986.139 1308.41 986.49 1306.41 986.49ZM1361.93 971.27C1358.05 971.27 1354.64 970.353 1351.71 968.502C1348.81 966.659 1346.53 964.071 1344.89 960.755C1343.27 957.438 1342.46 953.556 1342.46 949.116C1342.46 944.64 1343.27 940.733 1344.89 937.394C1346.53 934.056 1348.81 931.464 1351.71 929.617C1354.64 927.771 1358.05 926.848 1361.93 926.848C1365.81 926.848 1369.2 927.771 1372.11 929.617C1375.04 931.464 1377.31 934.056 1378.94 937.394C1380.58 940.733 1381.4 944.64 1381.4 949.116C1381.4 953.556 1380.58 957.438 1378.94 960.755C1377.31 964.071 1375.04 966.659 1372.11 968.502C1369.2 970.353 1365.81 971.27 1361.93 971.27ZM1361.93 965.34C1364.88 965.34 1367.3 964.585 1369.2 963.077C1371.11 961.569 1372.51 959.581 1373.43 957.121C1374.34 954.653 1374.8 951.988 1374.8 949.116C1374.8 946.244 1374.34 943.568 1373.43 941.087C1372.51 938.607 1371.11 936.601 1369.2 935.073C1367.3 933.543 1364.88 932.778 1361.93 932.778C1358.98 932.778 1356.56 933.543 1354.65 935.073C1352.75 936.601 1351.34 938.607 1350.43 941.087C1349.52 943.568 1349.06 946.244 1349.06 949.116C1349.06 951.988 1349.52 954.653 1350.43 957.121C1351.34 959.581 1352.75 961.569 1354.65 963.077C1356.56 964.585 1358.98 965.34 1361.93 965.34ZM1418.56 952.81V927.407H1425.16V970.379H1418.56V963.103H1418.11C1417.1 965.288 1415.53 967.139 1413.41 968.673C1411.28 970.182 1408.6 970.936 1405.35 970.936C1402.67 970.936 1400.28 970.353 1398.19 969.17C1396.11 967.979 1394.46 966.188 1393.27 963.806C1392.08 961.397 1391.48 958.364 1391.48 954.713V927.407H1398.08V954.267C1398.08 957.395 1398.96 959.898 1400.71 961.757C1402.48 963.626 1404.74 964.56 1407.48 964.56C1409.12 964.56 1410.79 964.14 1412.48 963.3C1414.2 962.46 1415.64 961.175 1416.79 959.435C1417.97 957.704 1418.56 955.493 1418.56 952.81Z" fill="white"/>
<path d="M1072.27 350.869C1095.34 315.447 1118.4 280.02 1141.45 244.59C1165.47 207.52 1189.26 170.278 1213.31 133.233C1222.41 118.796 1235.62 107.447 1251.23 100.667C1266.83 93.8876 1284.11 91.992 1300.81 95.2273C1317.51 98.4626 1332.84 106.678 1344.82 118.804C1356.81 130.929 1364.87 146.401 1367.96 163.2C1372.26 184.413 1368.04 206.469 1356.25 224.584C1292.48 323.632 1228.65 422.64 1164.75 521.607C1163.06 524.219 1160.96 526.551 1159.06 529.017C1156.41 522.34 1159.77 516.079 1160.56 509.695C1162.18 498.839 1161.58 487.765 1158.77 477.154C1155.97 466.544 1151.04 456.624 1144.27 448.006C1121.36 418.32 1097.99 388.975 1075.02 359.302C1073.58 357.643 1072.48 355.72 1071.78 353.638C1071.66 353.167 1071.65 352.678 1071.74 352.201C1071.82 351.724 1072 351.271 1072.27 350.869Z" fill="#FBAF40"/>
<path d="M851.622 346.893C819.337 397.247 787.052 447.601 754.768 497.955C740.554 520.097 726.351 542.251 711.966 564.283C702.977 578.585 689.957 589.878 674.562 596.725C659.167 603.571 642.094 605.662 625.513 602.732C608.776 599.783 593.321 591.813 581.177 579.871C569.034 567.931 560.772 552.579 557.477 535.832C555.083 525.233 554.839 514.258 556.76 503.563C558.68 492.867 562.725 482.669 568.654 473.579C633.223 373.212 697.881 272.899 762.629 172.638C763.19 171.896 763.807 171.198 764.475 170.551C767.537 173.578 765.86 177.106 765.216 180.317C762.271 193.52 762.499 207.238 765.879 220.336C769.259 233.434 775.695 245.536 784.655 255.639C806.366 281.906 826.509 309.456 847.746 336.126C850.139 339.092 853.456 342.206 851.622 346.893Z" fill="#EC008B"/>
<path d="M1072.3 350.855C1072.37 351.424 1072.39 351.994 1072.39 352.565C1070.51 359.876 1066.92 366.627 1061.9 372.252C1043.79 400.485 1025.46 428.571 1007.77 457.072C1001.52 466.939 997.608 478.117 996.344 489.744C995.08 501.37 996.494 513.132 1000.48 524.121C1001.69 527.783 1004.46 531.579 1001.24 535.643C980.881 509.9 960.434 484.231 940.181 458.403C911.023 421.231 881.954 384.004 852.974 346.718C851.929 342.178 854.699 338.905 856.813 335.512C874.539 307.059 893.103 279.169 911.193 250.948C919.749 238.551 925.505 224.424 928.056 209.557C929.306 197.713 928.192 185.736 924.776 174.33C923.829 170.485 921.253 166.786 923.561 162.6C943.55 187.826 963.532 213.053 983.505 238.278C1013.16 275.767 1042.76 313.294 1072.3 350.855Z" fill="#45C9F4"/>
<path d="M923.579 162.636C929.819 176.923 932.224 192.604 930.555 208.115C928.887 223.627 923.201 238.428 914.067 251.045C904.104 265.46 894.81 280.339 885.394 295.121C874.46 312.209 863.757 329.53 852.956 346.74L852.288 346.948H851.596C840.805 330.951 829.207 315.519 816.848 300.712C804.7 284.514 791.858 268.841 779.271 252.973C770.361 241.456 764.36 227.942 761.782 213.588C759.202 199.233 760.122 184.466 764.462 170.546C773.588 149.382 789.885 132.152 810.458 121.917C828.634 113.602 849.133 111.941 868.4 117.223C887.665 122.505 904.485 134.396 915.937 150.833C918.598 154.69 921.041 158.705 923.579 162.636Z" fill="#83298F"/>
<path d="M1001.26 535.664C999.686 529.977 998.033 524.313 996.539 518.576C993.47 507.068 992.989 495.02 995.13 483.302C997.271 471.586 1001.98 460.494 1008.92 450.833C1024.62 427.165 1039.41 402.886 1054.72 378.951C1060.43 370.04 1066.49 361.349 1072.4 352.561C1098.06 385.273 1124.38 417.496 1149.16 450.88C1157.02 462.102 1162.04 475.086 1163.77 488.701C1165.51 502.316 1163.9 516.151 1159.1 529C1154.49 540.194 1147.67 550.332 1139.06 558.8C1130.44 567.268 1120.2 573.889 1108.96 578.263C1092.32 584.532 1074.15 585.4 1057 580.744C1039.85 576.089 1024.59 566.146 1013.37 552.314C1009.04 547.041 1005.24 541.243 1001.26 535.664Z" fill="#3BA8B7"/>
</svg>
