<svg width="1920" height="1080" viewBox="0 0 1920 1080" fill="none" xmlns="http://www.w3.org/2000/svg">
<path fill-rule="evenodd" clip-rule="evenodd" d="M761.175 573.985L761.047 574.155L753.549 583.069L753.42 583.196L748.022 589.325C748.664 591.555 749.35 593.525 750.078 595.152C750.378 595.88 751.62 597.767 751.963 599.225C665.459 708.538 829.47 795.786 945.539 670.487C946.91 668.986 950.68 664.358 951.964 662.944C960.663 653.43 957.192 656.388 962.16 652.488C955.522 673.528 950.763 679.914 944.937 706.138L973.257 669.885C978.571 658.658 985.426 642.589 992.58 626.863C1004.84 599.824 1008.18 558.772 1020.48 536.916C1027.97 523.546 1058.26 501.135 1074.72 472.938C1158.73 329.129 1047.81 279.335 1015.89 242.782C947.422 164.364 987.053 150.48 1005.86 70.8184C977.413 92.4156 983.669 87.7877 969.018 110.028C953.122 175.72 910.277 232.069 965.76 299.518C1000.04 341.127 1076.47 373.095 1065.33 452.843C1064.31 461.498 1030.93 475.766 1021.72 475.34C998.237 326.6 906.59 238.326 846.009 355.311C820.987 403.692 806.205 467.068 842.668 513.091C878.955 558.901 916.017 560.356 985.256 558.256C987.482 596.353 978.185 625.921 969.873 656.172C969.061 654.458 968.718 649.66 968.459 650.732C967.431 655.274 967.817 634.061 959.248 622.877C936.841 656.558 843.952 677.901 804.363 641.817C739.752 582.896 806.248 565.929 821.201 506.363C812.418 514.635 800.85 527.06 788.467 541.588L761.132 574.025L761.175 573.985ZM861.905 376.566C907.492 365.124 954.32 436.345 965.374 480.525C930.112 477.181 909.977 465.098 890.611 445.898C881.87 437.243 872.23 429.144 865.289 415.388C846.565 378.408 861.818 376.694 861.905 376.523V376.566Z" fill="#604219"/>
<path fill-rule="evenodd" clip-rule="evenodd" d="M1009.55 615.505C1088.94 585.381 1095.67 566.611 1148.03 636.246C1160.54 619.232 1188.22 600.079 1190.83 574.71C1195.89 525.515 1130.42 493.208 1054.37 542.616C1020.99 564.298 1019.71 565.326 1009.55 615.505Z" fill="#604219"/>
<path fill-rule="evenodd" clip-rule="evenodd" d="M841.77 217.198C844.212 218.784 846.312 218.612 846.867 220.583L889.972 256.15C907.924 234.896 932.688 185.188 919.577 165.476C902.823 153.906 899.699 151.849 871.934 145.207L841.77 217.198Z" fill="#604219"/>
<path fill-rule="evenodd" clip-rule="evenodd" d="M1063.33 499.545C1066.72 506.23 1128.67 465.993 1128.45 465.82C1144.05 458.623 1154.46 450.48 1174.43 443.023L1175.2 444.268C1176.27 446.324 1175.37 444.311 1176.14 446.238L1196.19 506.143C1208.87 546.21 1224.98 592.147 1238.61 632.643C1242.21 643.358 1245.64 653.513 1249.23 664.225C1252.57 674.211 1257.55 686.466 1259.82 696.236C1232.44 701.806 1170.7 731.674 1145.68 746.328C1140.02 749.629 1134.54 752.97 1128.84 756.441C1123.57 759.655 1116.84 763.854 1112.09 767.541C1100.99 776.24 1093.83 780.139 1080.94 791.194C1064.14 805.635 1053.43 814.849 1039.51 831.56C1028.37 844.93 1012.13 864.516 1005.96 879.6C1006.86 878.914 1008.92 877.54 1010.16 876.555L1011.57 874.671C1009.39 873.899 1009.09 875.357 1015.86 868.03L1051.03 834.947C1055.19 831.134 1061.31 825.946 1066.24 822.306C1082.35 810.393 1097.09 798.524 1115.04 788.452C1149.32 769.212 1169.11 758.241 1210.89 745.942C1244.27 736.129 1270.66 733.687 1307.16 731.93L1200.77 414.184C1183.34 419.454 1057.12 491.619 1063.24 499.502L1063.33 499.545ZM1011.23 875.014L1012.39 874.329C1012.39 875.743 1012.69 875.357 1011.23 875.014Z" fill="#0C919A"/>
<path fill-rule="evenodd" clip-rule="evenodd" d="M910.655 874.289C911.424 875.231 911.211 875.188 912.968 876.216L910.655 874.289ZM912.838 876.515L910.269 873.903C912.881 874.931 911.124 875.231 912.795 873.99C909.84 871.587 886.231 846.135 877.233 839.493C874.664 837.606 872.651 835.337 870.209 833.064L847.116 814.853C844.114 812.753 842.7 811.469 839.402 809.11C800.327 781.341 759.196 759.616 711.338 745.776C670.335 733.907 656.41 734.719 615.836 731.891C618.921 719.592 625.048 704.082 629.247 691.568C637.387 667.23 720.464 416.63 722.52 413.502C731.518 416.76 744.586 424.772 752.641 429.487L780.79 447.143C786.96 451.383 818.665 465.568 818.365 469.381C818.236 471.311 818.365 477.866 818.279 477.437C816.48 476.838 781.004 459.139 780.49 458.197C775.82 454.514 756.025 444.398 748.185 442.598L663.137 696.196C692.229 702.152 750.498 731.205 777.277 746.289C785.117 750.705 804.141 762.231 810.867 767.502C816.394 771.831 821.793 774.872 827.191 779.029C839.875 788.712 860.609 806.541 870.635 817.295C884.86 832.509 909.97 861.731 916.994 879.517L912.751 876.472L912.838 876.515Z" fill="#0C919A"/>
<path fill-rule="evenodd" clip-rule="evenodd" d="M910.658 874.288L912.971 876.218L912.841 876.518L910.272 873.906C909.713 871.333 892.663 857.321 889.621 854.962C830.408 807.954 753.672 779.973 674.537 785.373L680.407 752.72C670.295 750.191 664.126 748.564 653.072 748.135L638.633 807.741C718.711 793.599 783.964 806.67 854.915 842.021C870.295 849.695 882.55 856.935 896.775 865.763C900.373 867.989 907.487 873.52 910.615 874.288H910.658Z" fill="#00575B"/>
<path fill-rule="evenodd" clip-rule="evenodd" d="M1011.55 874.674L1010.14 876.557L1009.96 876.258L1011.17 875.06L1012.32 874.374C1015.41 873.602 1022.6 868.075 1026.2 865.846C1060.05 844.892 1090.34 829.293 1130.1 816.994C1183.87 800.326 1226.89 797.498 1284.39 807.823L1269.95 748.903C1262.96 746.118 1250.16 750.873 1242.66 752.803L1248.48 785.456C1198.96 782.112 1150.07 792.31 1109.28 809.71C1089.49 818.152 1072.26 827.792 1056.32 838.463C1049.04 843.348 1013.95 869.06 1011.59 874.757L1011.55 874.674Z" fill="#00575B"/>
<path d="M547.18 1000.82V929.607H564.723L589.945 966.23C590.444 966.959 591.211 968.456 592.325 970.722C593.438 972.985 594.666 975.674 596.01 978.782C595.626 975.827 595.396 973.218 595.204 970.912C595.012 968.609 594.935 966.576 594.935 964.773V929.607H612.402V1000.82H594.935L569.714 964.041C569.215 963.312 568.37 961.815 567.257 959.552C566.144 957.286 564.954 954.637 563.648 951.602C564.032 954.597 564.263 957.246 564.455 959.552C564.647 961.855 564.723 963.888 564.723 965.691V1000.86H547.18V1000.82Z" fill="#6BCFD4"/>
<path d="M695.321 965.342C695.321 970.446 694.438 975.245 692.672 979.737C690.906 984.229 688.334 988.222 684.956 991.752C681.539 995.246 677.662 997.972 673.286 999.852C668.909 1001.74 664.379 1002.69 659.658 1002.69C654.936 1002.69 650.329 1001.74 645.953 999.852C641.577 997.972 637.738 995.246 634.436 991.752C630.981 988.222 628.409 984.189 626.605 979.697C624.839 975.208 623.918 970.41 623.918 965.342C623.918 960.274 624.801 955.476 626.605 950.984C628.409 946.491 630.981 942.498 634.436 938.931C637.738 935.437 641.577 932.712 645.953 930.829C650.329 928.949 654.897 927.99 659.658 927.99C664.418 927.99 668.986 928.949 673.362 930.829C677.739 932.712 681.616 935.437 684.956 938.931C688.295 942.422 690.868 946.455 692.633 950.947C694.399 955.436 695.282 960.234 695.282 965.342H695.321ZM659.658 986.262C664.687 986.262 668.871 984.305 672.172 980.312C675.474 976.359 677.124 971.368 677.124 965.342C677.124 959.316 675.435 954.401 672.095 950.408C668.756 946.415 664.61 944.418 659.658 944.418C654.705 944.418 650.444 946.415 647.143 950.368C643.842 954.324 642.191 959.316 642.191 965.342C642.191 971.368 643.803 976.436 647.066 980.389C650.329 984.342 654.514 986.262 659.658 986.262Z" fill="#6BCFD4"/>
<path d="M775.285 965.342C775.285 970.446 774.403 975.245 772.637 979.737C770.871 984.229 768.299 988.222 764.92 991.752C761.504 995.246 757.627 997.972 753.25 999.852C748.874 1001.74 744.344 1002.69 739.623 1002.69C734.901 1002.69 730.294 1001.74 725.918 999.852C721.541 997.972 717.703 995.246 714.401 991.752C710.946 988.222 708.374 984.189 706.57 979.697C704.804 975.208 703.883 970.41 703.883 965.342C703.883 960.274 704.766 955.476 706.57 950.984C708.374 946.491 710.946 942.498 714.401 938.931C717.703 935.437 721.541 932.712 725.918 930.829C730.294 928.949 734.862 927.99 739.623 927.99C744.383 927.99 748.951 928.949 753.327 930.829C757.703 932.712 761.581 935.437 764.92 938.931C768.26 942.422 770.833 946.455 772.598 950.947C774.364 955.436 775.247 960.234 775.247 965.342H775.285ZM739.623 986.262C744.651 986.262 748.836 984.305 752.137 980.312C755.439 976.359 757.089 971.368 757.089 965.342C757.089 959.316 755.4 954.401 752.061 950.408C748.721 946.415 744.575 944.418 739.623 944.418C734.671 944.418 730.409 946.415 727.108 950.368C723.806 954.324 722.156 959.316 722.156 965.342C722.156 971.368 723.768 976.436 727.031 980.389C730.294 984.342 734.479 986.262 739.623 986.262Z" fill="#6BCFD4"/>
<path d="M786.684 1000.82V929.607H805.724C813.172 929.607 818.354 929.953 821.31 930.722C824.266 931.451 826.761 932.679 828.911 934.406C831.291 936.362 833.172 938.821 834.44 941.853C835.745 944.887 836.397 948.188 836.397 951.835C836.397 957.362 835.129 961.815 832.596 965.269C830.063 968.726 826.339 971.029 821.502 972.143L839.698 1000.86H819.122L803.805 972.985V1000.86H786.76L786.684 1000.82ZM803.728 963.275H807.106C811.022 963.275 813.901 962.543 815.705 961.126C817.51 959.705 818.431 957.479 818.431 954.408C818.431 950.837 817.586 948.302 815.897 946.804C814.208 945.307 811.368 944.541 807.414 944.541H803.767V963.275H803.728Z" fill="#6BCFD4"/>
<path d="M875.41 929.607H893.569V964.234C893.569 969.338 893.685 972.985 893.915 975.211C894.144 977.441 894.567 979.281 895.142 980.778C895.835 982.585 897.062 983.966 898.789 984.924C900.516 985.886 902.629 986.345 905.125 986.345C907.617 986.345 909.73 985.886 911.457 984.924C913.184 983.966 914.412 982.585 915.144 980.778C915.72 979.281 916.143 977.441 916.372 975.211C916.602 972.985 916.718 969.338 916.718 964.234V929.607H934.837V967.265C934.837 975.098 934.414 980.855 933.532 984.542C932.647 988.265 931.15 991.413 929.077 994.062C926.814 996.94 923.666 999.13 919.673 1000.55C915.68 1002.01 910.842 1002.7 905.162 1002.7C899.482 1002.7 894.603 1001.97 890.614 1000.55C886.657 999.09 883.509 996.94 881.207 994.062C879.134 991.45 877.676 988.265 876.754 984.542C875.873 980.818 875.41 975.058 875.41 967.265V929.607Z" fill="#6BCFD4"/>
<path d="M948.691 1000.82V929.607H966.89V984.196H989.5V1000.82H948.691Z" fill="#6BCFD4"/>
<path d="M1097.61 1009.18H1082.1L1075 999.2C1073.08 1000.31 1070.93 1001.12 1068.55 1001.7C1066.17 1002.27 1063.6 1002.54 1060.8 1002.54C1057 1002.54 1053.35 1002 1049.85 1000.93C1046.36 999.852 1043.14 998.278 1040.1 996.168C1035.34 992.751 1031.58 988.335 1028.85 982.845C1026.13 977.358 1024.79 971.521 1024.79 965.265C1024.79 960.197 1025.67 955.436 1027.47 950.907C1029.28 946.415 1031.85 942.385 1035.27 938.851C1038.61 935.361 1042.44 932.672 1046.74 930.792C1051.04 928.909 1055.65 927.99 1060.49 927.99C1065.32 927.99 1069.85 928.909 1074.15 930.792C1078.45 932.672 1082.33 935.321 1085.71 938.851C1089.09 942.385 1091.66 946.415 1093.46 950.907C1095.27 955.399 1096.15 960.197 1096.15 965.265C1096.15 970.599 1095.23 975.514 1093.43 980.043C1091.62 984.575 1088.93 988.565 1085.4 991.946L1097.57 1009.18H1097.61ZM1071.5 972.406L1074.96 977.318C1075.92 975.707 1076.69 973.94 1077.19 971.984C1077.69 970.024 1077.96 967.991 1077.96 965.841C1077.96 959.582 1076.3 954.437 1073 950.408C1069.7 946.378 1065.52 944.342 1060.49 944.342C1055.46 944.342 1051.39 946.338 1048.05 950.368C1044.71 954.401 1043.02 959.392 1043.02 965.342C1043.02 971.291 1044.67 976.472 1047.97 980.465C1051.28 984.459 1055.5 986.455 1060.56 986.455C1061.25 986.455 1061.98 986.378 1062.71 986.185C1063.44 985.992 1064.25 985.726 1065.09 985.38L1055.65 972.406H1071.43H1071.5Z" fill="#6BCFD4"/>
<path d="M1107.19 929.607H1125.35V964.234C1125.35 969.338 1125.46 972.985 1125.7 975.211C1125.93 977.441 1126.35 979.281 1126.92 980.778C1127.61 982.585 1128.84 983.966 1130.57 984.924C1132.3 985.886 1134.41 986.345 1136.9 986.345C1139.4 986.345 1141.51 985.886 1143.24 984.924C1144.97 983.966 1146.19 982.585 1146.92 980.778C1147.5 979.281 1147.92 977.441 1148.15 975.211C1148.38 972.985 1148.5 969.338 1148.5 964.234V929.607H1166.62V967.265C1166.62 975.098 1166.2 980.855 1165.31 984.542C1164.43 988.265 1162.93 991.413 1160.86 994.062C1158.59 996.94 1155.44 999.13 1151.45 1000.55C1147.46 1002.01 1142.62 1002.7 1136.94 1002.7C1131.26 1002.7 1126.38 1001.97 1122.39 1000.55C1118.44 999.09 1115.29 996.94 1112.99 994.062C1110.91 991.45 1109.46 988.265 1108.54 984.542C1107.65 980.818 1107.19 975.058 1107.19 967.265V929.607Z" fill="#6BCFD4"/>
<path d="M1180.45 1000.82V929.607H1199.49C1206.94 929.607 1212.12 929.953 1215.08 930.722C1217.99 931.451 1220.53 932.679 1222.68 934.406C1225.06 936.362 1226.94 938.821 1228.21 941.853C1229.47 944.887 1230.12 948.188 1230.12 951.835C1230.12 957.362 1228.86 961.815 1226.32 965.269C1223.79 968.726 1220.07 971.029 1215.23 972.143L1233.43 1000.86H1212.85L1197.53 972.985V1000.86H1180.49L1180.45 1000.82ZM1197.49 963.275H1200.87C1204.79 963.275 1207.67 962.543 1209.47 961.126C1211.28 959.705 1212.2 957.479 1212.2 954.408C1212.2 950.837 1211.35 948.302 1209.66 946.804C1207.97 945.307 1205.13 944.541 1201.14 944.541H1197.49V963.275Z" fill="#6BCFD4"/>
<path d="M1232.45 1000.82L1255.49 929.607H1278.29L1301.36 1000.82H1283.24L1279.87 988.072H1253.99L1250.54 1000.82H1232.42H1232.45ZM1257.95 974.216H1276.07L1269.27 950.721C1269.04 949.992 1268.77 948.841 1268.39 947.267C1268.04 945.693 1267.54 943.62 1266.97 941.124C1266.58 942.891 1266.2 944.541 1265.82 946.115C1265.43 947.689 1265.05 949.223 1264.66 950.684L1257.95 974.176V974.216Z" fill="#6BCFD4"/>
<path d="M1307.78 1000.82V929.607H1325.32L1350.55 966.23C1351.04 966.959 1351.81 968.456 1352.93 970.722C1354.04 972.985 1355.27 975.674 1356.61 978.782C1356.26 975.827 1356 973.218 1355.8 970.912C1355.61 968.609 1355.53 966.576 1355.53 964.773V929.607H1373V1000.82H1355.53L1330.32 964.041C1329.82 963.312 1328.97 961.815 1327.86 959.552C1326.74 957.286 1325.55 954.637 1324.25 951.602C1324.6 954.597 1324.86 957.246 1325.05 959.552C1325.21 961.855 1325.32 963.888 1325.32 965.691V1000.86H1307.78V1000.82Z" fill="#6BCFD4"/>
</svg>
